<svg width="96" height="96" viewBox="0 0 96 96" fill="none" xmlns="http://www.w3.org/2000/svg">
<g id="python.svg" clip-path="url(#clip0_103_110)">
<path id="Vector" d="M19.2 76.8H9.6C4.29807 76.8 0 72.5018 0 67.2V35.2C0 29.898 4.29807 25.6 9.6 25.6H51.2V19.2H44.8V12.8H38.4V19.2H25.6V9.6C25.6 4.29807 29.898 0 35.2 0H60.8C66.1018 0 70.4 4.29807 70.4 9.6V41.6C70.4 43.3673 68.967 44.8 67.2 44.8H28.8C23.498 44.8 19.2 49.098 19.2 54.4V76.8Z" fill="#3967BF"/>
<path id="Vector_2" d="M76.8001 19.2V41.5999C76.8001 46.9019 72.5019 51.1999 67.2001 51.1999H28.8001C27.0328 51.1999 25.6001 52.6327 25.6001 54.3999V86.3999C25.6001 91.7017 29.8981 95.9999 35.2001 95.9999H60.8001C66.1019 95.9999 70.4001 91.7017 70.4001 86.3999V76.7999H57.6001V83.1999H51.2001V76.7999H44.8001V70.3999H86.4001C91.7019 70.3999 96.0001 66.1017 96.0001 60.7999V28.8C96.0001 23.498 91.7019 19.2 86.4001 19.2H76.8001Z" fill="#A7AA2B"/>
</g>
<defs>
<clipPath id="clip0_103_110">
<rect width="96" height="96" fill="white"/>
</clipPath>
</defs>
</svg>
