<svg width="96" height="96" viewBox="0 0 96 96" fill="none" xmlns="http://www.w3.org/2000/svg">
<g id="bxl-react.svg">
<path id="Vector" d="M47.9999 52.1201C51.9432 52.1201 55.1399 48.9234 55.1399 44.9801C55.1399 41.0368 51.9432 37.8401 47.9999 37.8401C44.0565 37.8401 40.8599 41.0368 40.8599 44.9801C40.8599 48.9234 44.0565 52.1201 47.9999 52.1201Z" fill="#2EA8CE"/>
<path id="Vector_2" d="M28.008 59.176L26.428 58.772C14.692 55.808 7.95996 50.768 7.95996 44.964C7.95996 39.156 14.696 34.12 26.428 31.156L28.008 30.756L28.452 32.32C29.6381 36.4147 31.1579 40.4054 32.996 44.252L33.336 44.964L32.996 45.676C31.156 49.528 29.632 53.52 28.452 57.616L28.008 59.176ZM25.7 34.796C16.784 37.308 11.308 41.14 11.308 44.964C11.308 48.78 16.78 52.616 25.7 55.124C26.792 51.652 28.112 48.256 29.64 44.964C28.1009 41.6665 26.7846 38.2695 25.7 34.796ZM67.988 59.176L67.548 57.608C66.3587 53.5124 64.8376 49.5205 63 45.672L62.66 44.964L63 44.248C64.84 40.404 66.356 36.408 67.548 32.312L67.988 30.752L69.568 31.152C81.308 34.116 88.036 39.152 88.036 44.964C88.036 50.772 81.304 55.808 69.568 58.772L67.988 59.176ZM66.348 44.964C67.948 48.428 69.28 51.836 70.296 55.124C79.216 52.616 84.692 48.78 84.692 44.964C84.692 41.14 79.22 37.312 70.296 34.796C69.2051 38.2684 67.8862 41.6652 66.348 44.964Z" fill="#2EA8CE"/>
<path id="Vector_3" d="M25.6761 34.78L25.2361 33.22C21.9321 21.588 22.9321 13.256 27.9841 10.352C32.9241 7.49199 40.8721 10.872 49.1961 19.412L50.3321 20.58L49.1961 21.744C46.2396 24.8187 43.5374 28.1283 41.1161 31.64L40.6641 32.288L39.8801 32.352C35.6224 32.6864 31.3991 33.3673 27.2521 34.388L25.6761 34.78ZM32.0041 12.664C31.1081 12.664 30.3161 12.86 29.6481 13.244C26.3361 15.152 25.7521 21.796 28.0321 30.764C31.5961 29.976 35.1921 29.412 38.8161 29.096C40.9142 26.1202 43.203 23.2836 45.6681 20.604C40.4561 15.536 35.5361 12.664 32.0041 12.664ZM63.9921 80.6C59.2401 80.6 53.1361 77.016 46.8001 70.512L45.6681 69.348L46.8001 68.188C49.7571 65.1083 52.4605 61.7949 54.8841 58.28L55.3321 57.64L56.1081 57.564C60.3672 57.2355 64.5922 56.5572 68.7401 55.536L70.3201 55.136L70.7641 56.7C74.0521 68.324 73.0561 76.668 68.0121 79.572C66.7874 80.2662 65.3997 80.6211 63.9921 80.6ZM50.3321 69.32C55.5401 74.388 60.4641 77.264 63.9921 77.264C64.8921 77.264 65.6841 77.064 66.3481 76.684C69.6641 74.772 70.2521 68.116 67.9641 59.148C64.4041 59.94 60.8041 60.508 57.1721 60.824C55.0829 63.8045 52.7979 66.6427 50.3321 69.32Z" fill="#2EA8CE"/>
<path id="Vector_4" d="M70.32 34.78L68.74 34.384C64.5923 33.3602 60.3674 32.6792 56.108 32.348L55.332 32.28L54.884 31.632C52.4638 28.1184 49.7601 24.8087 46.8 21.736L45.668 20.572L46.8 19.412C55.12 10.876 63.064 7.49604 68.012 10.352C73.06 13.26 74.064 21.592 70.764 33.22L70.32 34.78ZM57.172 29.096C60.988 29.436 64.604 30.008 67.964 30.764C70.248 21.796 69.664 15.152 66.348 13.24C63.052 11.332 56.848 14.252 50.332 20.604C52.796 23.284 55.084 26.116 57.172 29.096ZM32.004 80.6C30.5966 80.6201 29.2091 80.2653 27.984 79.572C22.932 76.668 21.932 68.328 25.232 56.7L25.664 55.136L27.244 55.536C31.1 56.508 35.348 57.192 39.876 57.564L40.652 57.64L41.104 58.28C43.52 61.792 46.224 65.1081 49.184 68.1881L50.32 69.348L49.184 70.5121C42.852 77.0201 36.748 80.6 32.004 80.6ZM28.032 59.1521C25.752 68.12 26.336 74.776 29.648 76.688C32.948 78.568 39.132 75.6681 45.668 69.32C43.2038 66.6396 40.9151 63.8031 38.816 60.828C35.1884 60.5072 31.5859 59.9474 28.032 59.1521Z" fill="#2EA8CE"/>
<path id="Vector_5" d="M48.0001 61.2521C45.2521 61.2521 42.4321 61.1361 39.6001 60.9001L38.8161 60.8321L38.3641 60.1841C36.7672 57.8877 35.2646 55.5271 33.8601 53.1081C32.4661 50.6826 31.1704 48.2019 29.9761 45.6721L29.6401 44.9641L29.9761 44.2481C31.1721 41.7201 32.4641 39.2401 33.8601 36.8161C35.2481 34.4321 36.7641 32.0481 38.3641 29.7361L38.8161 29.0961L39.6001 29.0241C45.1877 28.5561 50.8046 28.5561 56.3921 29.0241L57.1681 29.1001L57.6201 29.7401C60.8193 34.3351 63.6291 39.1893 66.0201 44.2521L66.3521 44.9681L66.0201 45.6761C63.6357 50.7423 60.8256 55.5971 57.6201 60.1881L57.1681 60.8361L56.3921 60.9041C53.5681 61.1321 50.7441 61.2521 48.0001 61.2521ZM40.6641 57.6361C45.6041 58.0081 50.3961 58.0081 55.3321 57.6361C58.0877 53.6009 60.5372 49.3651 62.6601 44.9641C60.5447 40.5591 58.0949 36.3227 55.3321 32.2921C50.45 31.9161 45.5462 31.9161 40.6641 32.2921C37.8991 36.3213 35.4492 40.5579 33.3361 44.9641C35.4636 49.3627 37.913 53.5982 40.6641 57.6361Z" fill="#2EA8CE"/>
</g>
</svg>
